{"title":"The Last Exorcism 2010 CAM Xvid Feel-Free","uid":5823463,"size":998401371,"categoryP":"video","categoryS":"movies","magnet":"?xt=urn:btih:86293a874ecf488bb0b9a58c20519c280e1185dc&amp;dn=The+Last+Exorcism+2010+CAM+Xvid+Feel-Free&amp;tr=udp%3A%2F%2Ftracker.openbittorrent.com%3A80&amp;tr=udp%3A%2F%2Fopen.demonii.com%3A1337&amp;tr=udp%3A%2F%2Ftracker.coppersurfer.tk%3A6969&amp;tr=udp%3A%2F%2Fexodus.desync.com%3A6969","seeders":0,"leechers":0,"uploader":".BONE.","files":7,"time":1284161418,"description":"Genre:Horror | Thriller\nLanguage: English\nIMDB:http://www.imdb.com/title/tt1320244/\nSource:LKRG.Thanks\n\nGeneral\nComplete name :The Last Exorcism 2010 CAM Xvid Feel-Free\nFormat : AVI\nFormat/Info : Audio Video Interleave\nFile size : 952 MiB\nDuration : 1h 20mn\nOverall bit rate : 1 646 Kbps\nVideo #0\nCodec ID : XVID\nCodec ID/Hint : XviD\nDuration : 1h 20mn\nBit rate : 1 187 Kbps\nWidth : 652 pixels\nHeight : 352 pixels\nDisplay aspect ratio : 1.852\nFrame rate : 29.970 fps\nResolution : 24 bits\nColorimetry : 4:2:0\nScan type : Progressive\nBits/(Pixel*Frame) : 0.173\nStream size : 686 MiB (72%)\nWriting library : XviD 1.2.1 (UTC 2008-12-04)\nAudio #1\nID : 1\nFormat : AC-3\nFormat/Info : Audio Coding 3\nCodec ID : 2000\nDuration : 1h 20mn\nBit rate mode : Constant\nBit rate : 448 Kbps\nChannel(s) : 2 channels\nChannel positions : L R\nSampling rate : 48.0 KHz\nStream size : 259 MiB (27%)\nAlignment : Aligned on interleaves\nInterleave, duration : 33 ms (1.00 video frame)\nInterleave, preload duration : 512 ms\n\nPlot\nA troubled evangelical minister agrees to let his last exorcism be filmed by a documentary crew","torrent":{"xt":"urn:btih:86293a874ecf488bb0b9a58c20519c280e1185dc","amp;dn":"The+Last+Exorcism+2010+CAM+Xvid+Feel-Free","amp;tr":["udp%3A%2F%2Ftracker.openbittorrent.com%3A80","udp%3A%2F%2Fopen.demonii.com%3A1337","udp%3A%2F%2Ftracker.coppersurfer.tk%3A6969","udp%3A%2F%2Fexodus.desync.com%3A6969"],"infoHash":"86293a874ecf488bb0b9a58c20519c280e1185dc","infoHashBuffer":{"type":"Buffer","data":[134,41,58,135,78,207,72,139,176,185,165,140,32,81,156,40,14,17,133,220]},"announce":[],"urlList":[]}}